PathFileType	4	(X/Y/Z)	/Users/itak/Documents/Research/Walk-IL/dataset/trc/00570_00009.trc
DataRate	CameraRate	NumFrames	NumMarkers	Units	OrigDataRate	OrigDataStartFrame	OrigNumFrames
100.000000	100.000000	4	53	mm	100.000000	0	526
Frame#	Time	RPSI			LPSI			L3			STRN			T10			C7			CLAV			RBAK			LBAK			LSHO			LUPA			LAEL			LAOL			LWTS			LWPS			LFRA			LIFD			LHPS			LHTS			RSHO			RUPA			RAEL			RAOL			RWTS			RWPS			RFRA			RIFD			RHTS			RHPS			RBHD			LFHD			RFHD			LBHD			LHIP			RHIP			RASI			LASI			LKNE			LTHI			LANK			LTIP			LTOE			LMT1			LMT5			LHEE			RKNE			RTHI			RANK			RTIP			RTOE			RMT1			RMT5			RHEE			
		X1	Y1	Z1	X2	Y2	Z2	X3	Y3	Z3	X4	Y4	Z4	X5	Y5	Z5	X6	Y6	Z6	X7	Y7	Z7	X8	Y8	Z8	X9	Y9	Z9	X10	Y10	Z10	X11	Y11	Z11	X12	Y12	Z12	X13	Y13	Z13	X14	Y14	Z14	X15	Y15	Z15	X16	Y16	Z16	X17	Y17	Z17	X18	Y18	Z18	X19	Y19	Z19	X20	Y20	Z20	X21	Y21	Z21	X22	Y22	Z22	X23	Y23	Z23	X24	Y24	Z24	X25	Y25	Z25	X26	Y26	Z26	X27	Y27	Z27	X28	Y28	Z28	X29	Y29	Z29	X30	Y30	Z30	X31	Y31	Z31	X32	Y32	Z32	X33	Y33	Z33	X34	Y34	Z34	X35	Y35	Z35	X36	Y36	Z36	X37	Y37	Z37	X38	Y38	Z38	X39	Y39	Z39	X40	Y40	Z40	X41	Y41	Z41	X42	Y42	Z42	X43	Y43	Z43	X44	Y44	Z44	X45	Y45	Z45	X46	Y46	Z46	X47	Y47	Z47	X48	Y48	Z48	X49	Y49	Z49	X50	Y50	Z50	X51	Y51	Z51	X52	Y52	Z52	X53	Y53	Z53	

1	0	-1224.481811523438	1010.063842773438	-65.75938415527344	-1223.290649414062	1014.160583496094	-199.2913208007812	-1222.60546875	1098.036376953125	-136.6854705810547	-1005.654846191406	1296.644653320312	-149.0125122070312	-1243.59130859375	1222.386474609375	-136.6010437011719	-1209.677612304688	1499.36962890625	-127.333740234375	-1031.02490234375	1407.160034179688	-148.2392730712891	-1270.430786132812	1370.681518554688	-37.09563064575195	-1246.9541015625	1444.092163085938	-215.9267578125	-1157.0771484375	1473.12109375	-306.1001586914062	-1171.738891601562	1345.229614257812	-383.6616821289062	-1151.668579101562	1124.65380859375	-406.4309387207031	-1232.42333984375	1116.034423828125	-346.6367492675781	-1056.379028320312	881.9465942382812	-365.3282165527344	-1107.142578125	859.0664672851562	-432.3009033203125	-1129.016723632812	1038.498901367188	-414.5132141113281	-1031.948852539062	735.7957763671875	-378.2056274414062	-1099.302612304688	799.4358520507812	-425.0270385742188	-1043.937377929688	802.958251953125	-387.7393188476562	-1141.51708984375	1464.95556640625	25.20815277099609	-1152.401489257812	1399.15380859375	94.48788452148438	-1138.09814453125	1107.767333984375	134.7225494384766	-1192.643920898438	1089.68212890625	108.3557815551758	-1017.104614257812	880.336669921875	97.33603668212891	-1045.662841796875	867.5322265625	156.8923645019531	-1126.998901367188	1052.433471679688	141.4500274658203	-998.3388671875	713.7101440429688	89.90031433105469	-976.5498657226562	795.2901611328125	100.7886428833008	-1028.715698242188	793.0142822265625	153.2489318847656	-1151.080078125	1681.74462890625	-76.61776733398438	-982.2850341796875	1714.69970703125	-193.7241516113281	-1015.736755371094	1711.65869140625	-53.85348892211914	-1105.386962890625	1684.264770507812	-236.1172027587891	-1096.29443359375	938.52392578125	-332.8352355957031	-1101.663208007812	937.6982421875	56.47769546508789	-997.3305053710938	984.5389404296875	12.55424499511719	-1016.845947265625	960.4915771484375	-280.2920837402344	-1102.170654296875	492.8936767578125	-273.9764099121094	-1088.406860351562	656.7099609375	-310.0436706542969	-1204.325927734375	27.72632598876953	-263.6867065429688	-1178.5927734375	252.0135803222656	-275.1222534179688	-986.3561401367188	37.85317230224609	-230.9061584472656	-1054.815551757812	42.55598068237305	-188.1473693847656	-1084.018920898438	30.9508171081543	-293.3323974609375	-1265.8037109375	30.91618347167969	-199.6863098144531	-1104.000122070312	495.1552124023438	-1.495842933654785	-1067.946044921875	781.938232421875	48.46551132202148	-1206.798461914062	37.71044540405273	-20.46014785766602	-1115.039428710938	353.902099609375	-16.45241165161133	-988.5286865234375	37.09322357177734	-72.42433166503906	-1055.875	32.44286727905273	-112.3270568847656	-1073.321533203125	40.27108001708984	-11.02234649658203	-1265.0732421875	25.51352500915527	-67.88072204589844	
2	0.01	-1224.561157226562	1010.091125488281	-65.74510192871094	-1223.385498046875	1014.195068359375	-199.3207397460938	-1222.65087890625	1098.065307617188	-136.6895141601562	-1005.631164550781	1296.663330078125	-149.0431365966797	-1243.609619140625	1222.414672851562	-136.6196594238281	-1209.668823242188	1499.38623046875	-127.3374176025391	-1031.03173828125	1407.167846679688	-148.2633666992188	-1270.41943359375	1370.721069335938	-37.06361389160156	-1246.959228515625	1444.1181640625	-215.936767578125	-1157.081298828125	1473.16796875	-306.1189575195312	-1171.621704101562	1345.29443359375	-383.7195129394531	-1151.270751953125	1124.73095703125	-406.5059204101562	-1232.048095703125	1115.934326171875	-346.8155212402344	-1055.058715820312	882.48193359375	-365.056640625	-1105.561279296875	859.2938842773438	-432.0874633789062	-1128.32080078125	1038.671508789062	-414.55419921875	-1030.593872070312	736.0672607421875	-377.8453674316406	-1097.394775390625	799.778076171875	-424.8079223632812	-1042.362548828125	803.3471069335938	-387.474365234375	-1141.481323242188	1464.981689453125	25.17822074890137	-1152.307250976562	1399.180908203125	94.42134094238281	-1137.90234375	1107.7900390625	134.7387084960938	-1192.429077148438	1089.661010742188	108.4062194824219	-1017.334106445312	880.1917114257812	97.449951171875	-1045.025146484375	867.6853637695312	156.5566101074219	-1126.689086914062	1052.453369140625	141.4180603027344	-997.4864501953125	714.0059814453125	89.40489959716797	-975.5689697265625	795.6389770507812	100.411262512207	-1028.04638671875	793.1748657226562	152.9119873046875	-1151.012939453125	1681.781982421875	-76.63191986083984	-982.2027587890625	1714.665161132812	-193.7543029785156	-1015.679565429688	1711.640502929688	-53.86026763916016	-1105.300415039062	1684.29638671875	-236.1298522949219	-1096.603759765625	938.3848266601562	-332.7166748046875	-1101.699340820312	937.7139282226562	56.43468475341797	-997.30224609375	984.7181396484375	12.65887451171875	-1016.910766601562	960.4545288085938	-280.2894592285156	-1102.281372070312	492.8573608398438	-273.9732055664062	-1088.505981445312	656.6691284179688	-310.0343627929688	-1204.338134765625	27.72107315063477	-263.6860656738281	-1178.594116210938	252.0136566162109	-275.119140625	-986.3580932617188	37.85354232788086	-230.9041290283203	-1054.840087890625	42.57810592651367	-188.1539001464844	-1084.017211914062	30.93440246582031	-293.3265686035156	-1265.79638671875	30.90072250366211	-199.6929626464844	-1104.051635742188	495.1722717285156	-1.494954943656921	-1068.057373046875	781.9557495117188	48.47316741943359	-1206.801025390625	37.70893859863281	-20.46997451782227	-1115.063720703125	353.9137573242188	-16.46877098083496	-988.530029296875	37.09928512573242	-72.42221069335938	-1055.871948242188	32.45044708251953	-112.3200073242188	-1073.321899414062	40.27324295043945	-11.02621459960938	-1265.079467773438	25.50806045532227	-67.88085174560547	
3	0.02	-1224.659912109375	1010.121948242188	-65.73370361328125	-1223.503662109375	1014.236083984375	-199.3590393066406	-1222.706787109375	1098.101684570312	-136.6992950439453	-1005.578552246094	1296.700805664062	-149.0960845947266	-1243.633178710938	1222.45068359375	-136.6449584960938	-1209.659301757812	1499.408081054688	-127.3436508178711	-1031.036987304688	1407.178466796875	-148.2951812744141	-1270.406982421875	1370.7705078125	-37.02544784545898	-1246.964477539062	1444.153198242188	-215.9508056640625	-1157.089599609375	1473.225952148438	-306.1455383300781	-1171.484008789062	1345.37646484375	-383.7864685058594	-1150.749877929688	1124.839233398438	-406.5919799804688	-1231.578857421875	1115.81103515625	-347.0382995605469	-1053.390258789062	883.1815185546875	-364.7343444824219	-1103.600341796875	859.6085815429688	-431.8152465820312	-1127.43408203125	1038.892822265625	-414.5947570800781	-1028.874877929688	736.453857421875	-377.3736572265625	-1095.008911132812	800.2073364257812	-424.5214538574219	-1040.366455078125	803.8815307617188	-387.1223449707031	-1141.438110351562	1465.012573242188	25.14177322387695	-1152.196044921875	1399.21484375	94.34828186035156	-1137.64208984375	1107.814331054688	134.7352752685547	-1192.162353515625	1089.634887695312	108.4654541015625	-1017.606262207031	880.0072631835938	97.59561920166016	-1044.239868164062	867.877197265625	156.1475067138672	-1126.262084960938	1052.480712890625	141.3146667480469	-996.4238891601562	714.3724365234375	88.77606201171875	-974.4278564453125	796.052978515625	99.93660736083984	-1027.180786132812	793.3787231445312	152.4687652587891	-1150.93017578125	1681.826416015625	-76.64473724365234	-982.1038208007812	1714.6220703125	-193.7944488525391	-1015.604248046875	1711.615600585938	-53.87118530273438	-1105.1982421875	1684.332885742188	-236.1450347900391	-1097.02294921875	938.1906127929688	-332.5431823730469	-1101.754028320312	937.7340698242188	56.38450622558594	-997.2936401367188	984.9202880859375	12.75456237792969	-1016.999328613281	960.4325561523438	-280.2796020507812	-1102.402221679688	492.8222351074219	-273.9725341796875	-1088.6259765625	656.62451171875	-310.0202026367188	-1204.350219726562	27.71687126159668	-263.6858215332031	-1178.602783203125	252.02099609375	-275.1216430664062	-986.3600463867188	37.85344696044922	-230.9018249511719	-1054.861938476562	42.59749603271484	-188.1608123779297	-1084.017211914062	30.91912460327148	-293.3210144042969	-1265.792724609375	30.8883113861084	-199.7008514404297	-1104.111083984375	495.1875	-1.497395038604736	-1068.198364257812	781.97607421875	48.48276901245117	-1206.8046875	37.70905303955078	-20.48065567016602	-1115.095947265625	353.9281616210938	-16.48514175415039	-988.5313720703125	37.10474395751953	-72.42007446289062	-1055.868896484375	32.46074295043945	-112.3130645751953	-1073.32421875	40.27365875244141	-11.02741813659668	-1265.087036132812	25.49969863891602	-67.87990570068359	
4	0.03	-1224.773681640625	1010.153442382812	-65.72792053222656	-1223.63916015625	1014.28076171875	-199.4050750732422	-1222.770263671875	1098.143920898438	-136.7161254882812	-1005.495727539062	1296.7578125	-149.17236328125	-1243.661376953125	1222.492797851562	-136.6767272949219	-1209.650146484375	1499.434448242188	-127.3529891967773	-1031.038696289062	1407.19189453125	-148.3338775634766	-1270.39404296875	1370.827270507812	-36.98487091064453	-1246.969482421875	1444.195922851562	-215.9692840576172	-1157.102294921875	1473.292358398438	-306.1800842285156	-1171.334716796875	1345.47265625	-383.8579711914062	-1150.120483398438	1124.976196289062	-406.6833190917969	-1231.03564453125	1115.67041015625	-347.2981567382812	-1051.440063476562	884.0230102539062	-364.3788452148438	-1101.35107421875	860.0087280273438	-431.4938354492188	-1126.38818359375	1039.15625	-414.6293640136719	-1026.839233398438	736.9737548828125	-376.79931640625	-1092.247192382812	800.705810546875	-424.1739501953125	-1038.007568359375	804.5738525390625	-386.6875	-1141.390014648438	1465.046020507812	25.10047912597656	-1152.0751953125	1399.253173828125	94.27481079101562	-1137.320678710938	1107.837280273438	134.7008056640625	-1191.858032226562	1089.605590820312	108.5314788818359	-1017.898986816406	879.7926635742188	97.76443481445312	-1043.342651367188	868.0985717773438	155.6824798583984	-1125.715698242188	1052.515869140625	141.1140441894531	-995.1937255859375	714.7923583984375	88.03580474853516	-973.2120361328125	796.5146484375	99.37638854980469	-1026.142211914062	793.6148071289062	151.9256134033203	-1150.833374023438	1681.87451171875	-76.65483093261719	-981.9942016601562	1714.572509765625	-193.8437194824219	-1015.511596679688	1711.58349609375	-53.88671112060547	-1105.087280273438	1684.371704101562	-236.1618347167969	-1097.554321289062	937.9376831054688	-332.3086853027344	-1101.828125	937.758056640625	56.33047485351562	-997.33203125	985.109619140625	12.80487251281738	-1017.108642578125	960.4322509765625	-280.2624206542969	-1102.521362304688	492.7926635742188	-273.9751281738281	-1088.758178710938	656.58056640625	-310.002197265625	-1204.360229492188	27.71391296386719	-263.6862487792969	-1178.619018554688	252.0356140136719	-275.130615234375	-986.3616333007812	37.85286331176758	-230.8996429443359	-1054.877197265625	42.61059951782227	-188.1670989990234	-1084.0185546875	30.90678024291992	-293.3161010742188	-1265.793090820312	30.88039970397949	-199.7088623046875	-1104.17333984375	495.1976623535156	-1.505221724510193	-1068.362426757812	781.9979858398438	48.49267578125	-1206.80908203125	37.71135711669922	-20.49116134643555	-1115.134887695312	353.9443054199219	-16.49958038330078	-988.5325317382812	37.10916900634766	-72.41820526123047	-1055.866455078125	32.47309494018555	-112.3074569702148	-1073.328735351562	40.27193832397461	-11.02519989013672	-1265.095703125	25.48870086669922	-67.87758636474609	
